<svg version="1.1" id="ecommerce_1_" xmlns="http://www.w3.org/2000/svg" x="0" y="0" viewBox="0 0 115 115" style="enable-background:new 0 0 115 115" xml:space="preserve"><style>.st8{fill:#ffcc5c}.st13{fill:#d6a041}</style><g id="ecommerce_2_"><circle class="st13" cx="57.5" cy="61.423" r="53.577"/><circle class="st8" cx="57.5" cy="53.577" r="53.577"/><circle cx="57.5" cy="53.577" r="41.702" style="fill:#fff"/><circle cx="57.5" cy="53.577" r="38.608" style="fill:#ffeead"/><g><path class="st13" d="M69.465 61.344c-4.705 0-5.858 2.977-6.145 3.553-.193.576-.289 1.248-.385 1.92-.287 1.152-.767 3.36-4.224 3.36-4.8 0-4.8-4.225-4.896-12.098H69.08c4.992 0 8.835-.288 8.835-9.025 0-6.479-.766-18.037-15.021-20.027V22.8a2.227 2.227 0 0 0-2.228-2.228H54.27a2.228 2.228 0 0 0-2.228 2.228v6.589c-4.53 1.009-7.979 3.083-10.132 5.84-3.553 4.513-3.744 10.465-3.744 21.41 0 8.065.096 14.21 5.376 19.01 1.367 1.23 3.862 3.086 8.5 4.057v5.804c0 1.231.998 2.228 2.228 2.228h6.396a2.228 2.228 0 0 0 2.228-2.228v-5.417c4.902-.608 7.96-2.241 9.644-3.772 2.497-2.113 3.84-5.28 3.84-8.258-.002-4.223-2.882-6.719-6.913-6.719zM55.158 40.798c1.152-1.344 2.688-1.344 3.17-1.344 4.416 0 4.416 3.36 4.513 8.448h-8.929c.093-3.937.19-5.857 1.246-7.104z"/></g><g><path class="st8" d="M69.465 57.873c-4.705 0-5.858 2.977-6.145 3.553-.193.576-.289 1.248-.385 1.92-.287 1.152-.767 3.36-4.224 3.36-4.8 0-4.8-4.225-4.896-12.098H69.08c4.992 0 8.835-.288 8.835-9.025 0-6.479-.766-18.037-15.021-20.027v-6.227a2.227 2.227 0 0 0-2.228-2.228H54.27a2.228 2.228 0 0 0-2.228 2.228v6.589c-4.53 1.009-7.979 3.083-10.132 5.84-3.553 4.513-3.744 10.465-3.744 21.41 0 8.065.096 14.21 5.376 19.01 1.367 1.23 3.862 3.086 8.5 4.057v5.804c0 1.231.998 2.228 2.228 2.228h6.396a2.228 2.228 0 0 0 2.228-2.228v-5.417c4.902-.608 7.96-2.241 9.644-3.772 2.497-2.113 3.84-5.28 3.84-8.258-.002-4.222-2.882-6.719-6.913-6.719zM55.158 37.327c1.152-1.344 2.688-1.344 3.17-1.344 4.416 0 4.416 3.36 4.513 8.448h-8.929c.093-3.936.19-5.856 1.246-7.104z"/></g></g></svg>