<svg xmlns="http://www.w3.org/2000/svg" viewBox="0 0 48 48"><path d="M36 35a4 4 0 0 0 4-4V17a5 5 0 0 0 1-3 1 1 0 0 0-.08-.39l-3-7A1 1 0 0 0 37 6H11a1 1 0 0 0-.92.6l-3 7A1 1 0 0 0 7 14a5 5 0 0 0 1 3v14a4 4 0 0 0 4 4h6.5v2a3.74 3.74 0 0 0-3.5 3.74V41a1 1 0 0 0 1 1h16a1 1 0 0 0 1-1v-.26A3.74 3.74 0 0 0 29.5 37v-2zm2-7H10v-9.42a3.94 3.94 0 0 0 .48.18 4.43 4.43 0 0 0 .49.13A5 5 0 0 0 16 17a5 5 0 0 0 8 0 5 5 0 0 0 8 0 5 5 0 0 0 5 1.89 4.43 4.43 0 0 0 .49-.13 3.94 3.94 0 0 0 .48-.18zM9 14.19 11.66 8h24.68L39 14.19a3 3 0 0 1-6-.19 1 1 0 0 0-2 0 3 3 0 0 1-6 0 1 1 0 0 0-2 0 3 3 0 0 1-6 0 1 1 0 0 0-2 0 3 3 0 0 1-6 .19zM30.83 40H17.17a1.72 1.72 0 0 1 1.57-1h10.52a1.72 1.72 0 0 1 1.57 1zM20.5 37v-2h7v2zM12 33a2 2 0 0 1-2-2v-1h28v1a2 2 0 0 1-2 2z"/></svg>